PathFileType	4	(X/Y/Z)	C:/Users/opensim2020/Desktop/walking_exp_matlab/subject01_walking05_straight_04.trc																																																																																																																															
DataRate	CameraRate	NumFrames	NumMarkers	Units	OrigDataRate	OrigDataStartFrame	OrigNumFrames																																																																																																																											
100	100	5	43	mm	100	2916	283																																																																																																																											
Frame#	Time	LFHD			RFHD			LBHD			RBHD			C7			T10			CLAV			STRN			RBAK			LSHO			LUPA			LELB			LFRM			LWRA			LWRB			LFIN			RSHO			RUPA			RELB			RFRM			RWRA			RWRB			RFIN			LASI			RASI			LPSI			RPSI			LTHI			LKNE			LTIB			LANK			LHEE			LTOE			RTHI			RKNE			RTIB			RANK			RHEE			RTOE			*39			*40			*41			*42		
		X1	Y1	Z1	X2	Y2	Z2	X3	Y3	Z3	X4	Y4	Z4	X5	Y5	Z5	X6	Y6	Z6	X7	Y7	Z7	X8	Y8	Z8	X9	Y9	Z9	X10	Y10	Z10	X11	Y11	Z11	X12	Y12	Z12	X13	Y13	Z13	X14	Y14	Z14	X15	Y15	Z15	X16	Y16	Z16	X17	Y17	Z17	X18	Y18	Z18	X19	Y19	Z19	X20	Y20	Z20	X21	Y21	Z21	X22	Y22	Z22	X23	Y23	Z23	X24	Y24	Z24	X25	Y25	Z25	X26	Y26	Z26	X27	Y27	Z27	X28	Y28	Z28	X29	Y29	Z29	X30	Y30	Z30	X31	Y31	Z31	X32	Y32	Z32	X33	Y33	Z33	X34	Y34	Z34	X35	Y35	Z35	X36	Y36	Z36	X37	Y37	Z37	X38	Y38	Z38	X39	Y39	Z39	X40	Y40	Z40	X41	Y41	Z41	X42	Y42	Z42	X43	Y43	Z43
																																																																																																																																		
142	1.41	-139.66896	1666.33374	-1501.43152	-117.11794	1671.60315	-1389.48218	-254.6927	1619.26257	-1484.52429	-233.95039	1623.56189	-1365.03125	-284.94269	1419.88245	-1446.56531	-303.31888	1126.10559	-1439.51465	-137.29825	1360.40894	-1447.13623	-85.33352	1208.88232	-1456.12793	-326.72302	1218.56775	-1374.02734	-204.98013	1389.7854	-1606.82043	-219.27628	1210.93103	-1698.59094	-202.48215	1059.27649	-1720.07751	-112.60316	986.56311	-1749.41687	16.18703	936.36414	-1737.41467	-26.78066	900.40125	-1759.17432	51.06875	873.46289	-1774.94897	-205.26865	1381.14514	-1294.82935	-278.35199	1181.71936	-1203.29395	-289.23309	1060.27954	-1202.47986	-288.03766	941.94189	-1169.95911	-235.03867	809.39801	-1182.81421	-279.74811	821.74084	-1146.3208	-263.47943	736.00641	-1148.71631	-140.99939	918.90527	-1558.24854	-117.68412	928.7063	-1344.79102	-319.89905	937.41833	-1487.02942	-303.41153	940.25934	-1341.90991	-236.5108	592.34021	-1603.69983	-279.07501	462.01401	-1592.52063	-418.29437	329.81485	-1599.63916	-556.1026	155.01741	-1550.44348	-603.70422	163.68401	-1497.25439	-468.66647	33.88187	-1531.36829	-102.48915	603.7619	-1284.34143	-56.27516	454.81851	-1317.13379	-76.06817	278.81711	-1305.98328	-69.57754	73.9263	-1355.53003	-118.64207	34.84044	-1403.3374	71.436	38.34375	-1366.32947	-131.66306	1705.0282	-1410.83606	-1973.09949	1023.31219	3101.93652	-2012.55664	1022.10077	3140.59375	NaN	NaN	NaN
143	1.42	-130.06688	1667.4292	-1499.49866	-107.40246	1672.57275	-1387.55042	-245.00119	1620.12634	-1482.56299	-224.06117	1624.23792	-1363.08716	-274.90707	1420.48596	-1444.84607	-292.79468	1126.8999	-1438.55139	-127.11261	1361.64209	-1445.68665	-75.43734	1209.96533	-1455.10669	-315.98099	1219.06592	-1372.89453	-195.17857	1390.98425	-1605.20398	-210.31638	1211.98193	-1696.69897	-195.1958	1060.30664	-1717.56885	-106.59769	985.94434	-1746.85095	21.15016	933.05493	-1734.99841	-22.73072	897.91168	-1756.46033	54.54142	869.28809	-1772.59521	-195.10449	1382.03906	-1293.34607	-266.35385	1181.91553	-1202.03894	-275.90848	1060.4679	-1200.9624	-273.64145	942.2923	-1168.45215	-219.01834	810.3783	-1180.99023	-264.5636	822.0119	-1144.96997	-247.80719	736.47168	-1147.22681	-130.19797	919.76569	-1556.45984	-106.68507	930.09753	-1343.31897	-308.57504	938.57709	-1486.10938	-292.10715	942.02313	-1340.92456	-220.09782	591.72559	-1603.90552	-260.51184	461.20538	-1594.10718	-403.49142	333.11789	-1600.8739	-545.4527	161.80659	-1551.89685	-590.92194	173.37286	-1497.77063	-467.94543	34.19569	-1530.58972	-92.8511	604.19745	-1283.4884	-49.58369	453.93576	-1316.5481	-71.8836	278.46909	-1305.823	-68.93496	73.85616	-1355.96375	-118.54642	35.01882	-1403.33801	72.19926	37.5517	-1367.40234	-122.23731	1705.93066	-1408.78735	-1973.01611	1023.70148	3101.94165	-2012.53174	1022.03723	3140.64551	NaN	NaN	NaN
144	1.43	-120.5508	1668.40417	-1497.63843	-97.73566	1673.38586	-1385.70923	-235.30528	1620.83289	-1480.63391	-214.2919	1624.80823	-1361.19897	-264.68307	1421.21631	-1443.06311	-282.45035	1127.72791	-1437.55139	-116.95328	1362.64343	-1444.40857	-64.64527	1211.28699	-1454.1333	-305.23431	1219.62354	-1371.41052	-185.55089	1392.14612	-1603.68506	-201.39844	1213.01196	-1694.9856	-188.0842	1061.21423	-1714.91589	-100.92603	985.11279	-1744.26648	25.7265	929.45728	-1732.51941	-18.97336	895.3587	-1754.01233	57.74395	864.77039	-1769.96985	-184.59349	1382.9447	-1291.86768	-254.3465	1182.27222	-1200.80249	-262.57196	1060.8949	-1199.42615	-259.11472	942.73773	-1166.94849	-203.84908	811.08429	-1179.9198	-248.17857	822.55963	-1143.12793	-231.69621	737.04272	-1145.74463	-119.00799	921.04846	-1554.59961	-95.8218	931.55615	-1341.86365	-297.62259	939.73236	-1484.85889	-281.24316	943.63263	-1339.77075	-203.16495	591.01678	-1604.33923	-241.51599	460.37534	-1595.56458	-387.74518	336.4292	-1602.02649	-533.48718	168.63539	-1553.50854	-576.5943	183.05122	-1498.47876	-466.98013	34.72438	-1530.07654	-84.45405	604.29156	-1282.43762	-43.31981	453.59576	-1315.87781	-67.96976	278.24356	-1305.97949	-68.33537	74.01952	-1356.43677	-118.49342	35.13812	-1403.3252	72.75262	36.91406	-1367.84497	-112.76115	1706.72461	-1406.79468	-1973.1283	1023.28668	3101.8291	-2012.6123	1021.92987	3140.60303	NaN	NaN	NaN
145	1.44	-111.00776	1669.31714	-1495.8501	-88.21547	1674.09106	-1383.92114	-225.63647	1621.4165	-1478.85742	-204.595	1625.15271	-1359.45435	-254.51895	1421.95886	-1441.38953	-272.14636	1128.50171	-1436.35535	-106.94572	1363.66797	-1443.4082	-54.77365	1212.06824	-1453.25867	-294.5596	1220.35425	-1369.81909	-176.02826	1393.12939	-1602.24756	-192.52641	1213.88501	-1693.4425	-181.21048	1061.93066	-1712.17798	-95.61349	984.10425	-1741.66309	30.01295	925.67426	-1730.09595	-15.49029	892.64154	-1751.68774	60.498	860.03632	-1767.396	-174.09016	1383.9541	-1290.71423	-242.31508	1182.75806	-1199.52734	-249.15184	1061.32715	-1197.82336	-244.40039	943.25378	-1165.41602	-188.35912	811.9328	-1178.87402	-232.07259	823.1076	-1141.57666	-214.9288	737.78754	-1144.26086	-108.38364	922.29004	-1552.83813	-85.14802	932.70264	-1340.49365	-286.96719	940.67572	-1483.38538	-270.35275	944.81006	-1338.23792	-185.93311	590.13806	-1604.66772	-222.40341	459.29285	-1596.42542	-371.08762	339.67184	-1602.89758	-520.33075	174.91629	-1555.40601	-561.67792	192.22255	-1500.23889	-464.35019	36.1815	-1529.89856	-77.29641	604.54443	-1281.55383	-37.6022	453.22253	-1315.17822	-64.28188	278.13904	-1306.16675	-67.93938	74.14729	-1356.60913	-118.31235	35.2159	-1403.47681	73.22248	36.58831	-1368.20374	-103.19151	1707.49329	-1404.8938	-1973.12231	1023.4455	3101.81396	-2012.47925	1022.00934	3140.73169	NaN	NaN	NaN
146	1.45	-101.52212	1670.25684	-1494.18225	-78.66512	1674.74951	-1382.23755	-216.05093	1621.96692	-1477.27649	-194.92003	1625.42627	-1357.87146	-244.50299	1422.68494	-1439.88599	-262.16721	1129.30408	-1435.03564	-96.80466	1364.44019	-1442.38452	-44.67244	1212.91345	-1452.521	-283.97226	1221.20703	-1367.97351	-166.57275	1394.01538	-1600.97766	-183.83221	1214.68396	-1692.13757	-174.61615	1062.36926	-1709.31458	-90.63094	982.78809	-1739.0769	34.0168	921.70215	-1727.71008	-12.43577	889.73352	-1749.05457	62.88367	855.16351	-1764.8562	-163.21277	1384.88416	-1289.66797	-230.18617	1183.37988	-1198.10535	-235.80608	1061.76331	-1196.28174	-229.52812	943.76355	-1163.8313	-172.07755	813.02802	-1177.68018	-215.64731	823.75714	-1140.21277	-197.67859	738.61237	-1143.00488	-98.08992	923.49512	-1551.29822	-74.71658	933.71332	-1339.22705	-276.68423	941.30823	-1481.77393	-259.72568	945.93042	-1336.76221	-168.72618	589.39923	-1604.94153	-202.97144	458.23645	-1597.12012	-353.57611	342.61859	-1603.50134	-506.09692	180.83005	-1557.00989	-546.71808	200.94571	-1502.61304	-459.07022	39.86604	-1529.94482	-71.0697	604.58057	-1280.85962	-32.17102	452.70145	-1314.43396	-61.27653	277.95462	-1305.93726	-67.56593	74.18549	-1356.84302	-118.22215	35.32898	-1403.45142	73.5341	36.09038	-1368.57849	-93.73219	1708.19446	-1403.0863	-1973.18433	1023.26666	3101.81836	-2012.51245	1021.92554	3140.66675	NaN	NaN	NaN
